<svg width="203" height="68" viewBox="0 0 203 68" fill="none" xmlns="http://www.w3.org/2000/svg">
<path d="M14.9421 31.9973H9.0681L8.91969 20.6603C8.90167 19.2835 8.91447 18.0238 8.95811 16.8814C8.60253 17.3208 8.15932 17.7797 7.62848 18.2582L5.22311 20.2649L2.17186 16.5738L9.44695 10.5831H14.6618L14.9421 31.9973ZM35.157 31.9973H19.615L19.5651 28.189L24.7254 22.9014C26.1991 21.339 27.1617 20.2746 27.6133 19.7083C28.0647 19.1322 28.3756 18.639 28.5461 18.2289C28.7262 17.8188 28.8134 17.3891 28.8075 16.94C28.8002 16.3834 28.6138 15.9439 28.2483 15.6217C27.8827 15.2995 27.3728 15.1384 26.7185 15.1384C26.0447 15.1384 25.3636 15.3336 24.6754 15.7242C23.9968 16.1051 23.2278 16.6714 22.3685 17.4233L19.1411 13.7029C20.2317 12.7167 21.1502 12.0136 21.8967 11.5937C22.643 11.1641 23.4542 10.837 24.3301 10.6124C25.2159 10.3878 26.2105 10.2755 27.314 10.2755C28.7007 10.2755 29.9393 10.5196 31.0297 11.0078C32.1298 11.4961 32.9837 12.1943 33.5913 13.1024C34.2085 14.0008 34.5244 15.0114 34.5392 16.1344C34.5501 16.9741 34.4529 17.7504 34.2474 18.4633C34.0516 19.1761 33.7386 19.8792 33.3082 20.5725C32.8777 21.256 32.3012 21.9786 31.5788 22.7402C30.8661 23.5019 29.3371 24.9471 26.992 27.0758L26.9939 27.2223H35.0945L35.157 31.9973ZM52.6832 21.3195C52.7328 25.1082 52.1344 27.8863 50.888 29.6537C49.6415 31.4114 47.7096 32.2902 45.0924 32.2902C42.5338 32.2902 40.5931 31.3723 39.2703 29.5365C37.9473 27.691 37.262 24.952 37.2144 21.3195C37.1646 17.5112 37.7628 14.7185 39.0091 12.9413C40.2553 11.1641 42.1871 10.2755 44.8042 10.2755C47.3531 10.2755 49.289 11.2031 50.6122 13.0585C51.9449 14.904 52.6353 17.6577 52.6832 21.3195ZM42.9713 21.3195C43.003 23.7411 43.1761 25.406 43.4908 26.3142C43.8054 27.2223 44.3191 27.6763 45.032 27.6763C45.7547 27.6763 46.2564 27.2076 46.5371 26.2702C46.8275 25.3328 46.9573 23.6825 46.9264 21.3195C46.8953 18.9466 46.7222 17.2866 46.4071 16.3394C46.0918 15.3825 45.5777 14.904 44.8648 14.904C44.1519 14.904 43.6501 15.3629 43.3594 16.2808C43.0687 17.1987 42.9393 18.8783 42.9713 21.3195Z" fill="#297CF8"/>
<path d="M73.2984 20.5725H81.0328L81.171 31.1331C80.053 31.5139 78.8995 31.802 77.7107 31.9973C76.5218 32.1926 75.1852 32.2902 73.7008 32.2902C71.4938 32.2902 69.6277 31.8508 68.1025 30.972C66.5773 30.0931 65.4085 28.8335 64.596 27.193C63.7933 25.5525 63.3769 23.58 63.3467 21.2755C63.3177 19.0589 63.7269 17.1255 64.5745 15.4752C65.422 13.825 66.6699 12.5458 68.3182 11.6377C69.9664 10.7295 71.9625 10.2755 74.3062 10.2755C75.4781 10.2755 76.6026 10.3878 77.6798 10.6124C78.7667 10.837 79.7669 11.1494 80.6803 11.5498L79.6295 14.0838C78.8633 13.742 78.0148 13.4539 77.084 13.2196C76.1628 12.9755 75.2091 12.8534 74.2228 12.8534C72.5821 12.8534 71.1755 13.2 70.003 13.8933C68.8402 14.5866 67.9496 15.5631 67.3314 16.8228C66.7229 18.0824 66.4299 19.5764 66.4525 21.3048C66.4747 22.9941 66.7576 24.4686 67.3015 25.7283C67.8453 26.9879 68.6833 27.9693 69.8156 28.6723C70.9478 29.3754 72.3977 29.7269 74.1653 29.7269C75.054 29.7269 75.8102 29.6781 76.4339 29.5805C77.0674 29.4828 77.6469 29.3656 78.1725 29.2289L78.0935 23.1943H73.3327L73.2984 20.5725ZM93.5209 15.5631C93.8139 15.5631 94.1315 15.5826 94.4738 15.6217C94.816 15.651 95.1095 15.6901 95.3543 15.7389L95.0825 18.4779C94.8474 18.4193 94.5733 18.3705 94.2603 18.3314C93.957 18.2924 93.6736 18.2728 93.4099 18.2728C92.7849 18.2728 92.1907 18.39 91.6274 18.6244C91.0641 18.8587 90.5705 19.2005 90.1467 19.6497C89.7228 20.0891 89.3929 20.631 89.1572 21.2755C88.9214 21.9102 88.8089 22.6377 88.8196 23.458L88.9314 31.9973H85.9724L85.7611 15.8561H88.1341L88.5239 18.7709H88.6557C88.9801 18.185 89.3734 17.6479 89.8358 17.1597C90.3079 16.6714 90.8497 16.2857 91.4612 16.0025C92.0824 15.7096 92.769 15.5631 93.5209 15.5631ZM112.57 23.8974C112.588 25.2254 112.428 26.4118 112.09 27.4566C111.761 28.4917 111.27 29.3705 110.615 30.0931C109.97 30.806 109.187 31.3528 108.264 31.7336C107.341 32.1047 106.294 32.2902 105.122 32.2902C104.028 32.2902 103.02 32.1047 102.097 31.7336C101.184 31.3528 100.39 30.806 99.717 30.0931C99.0435 29.3705 98.5193 28.4917 98.1444 27.4566C97.7694 26.4118 97.5732 25.2254 97.5558 23.8974C97.5327 22.1299 97.8157 20.6262 98.405 19.386C98.9941 18.1361 99.8459 17.189 100.961 16.5445C102.085 15.8902 103.428 15.5631 104.991 15.5631C106.475 15.5631 107.783 15.8902 108.915 16.5445C110.046 17.1987 110.933 18.1459 111.574 19.386C112.215 20.6262 112.547 22.1299 112.57 23.8974ZM100.573 23.8974C100.59 25.1375 100.76 26.2067 101.084 27.1051C101.418 27.9937 101.915 28.6772 102.576 29.1557C103.246 29.6342 104.104 29.8734 105.149 29.8734C106.174 29.8734 107.016 29.6342 107.673 29.1557C108.331 28.6772 108.811 27.9937 109.111 27.1051C109.412 26.2067 109.554 25.1375 109.538 23.8974C109.522 22.667 109.352 21.6124 109.028 20.7336C108.704 19.8547 108.207 19.181 107.537 18.7123C106.876 18.2436 106.019 18.0092 104.964 18.0092C103.421 18.0092 102.295 18.5267 101.586 19.5618C100.886 20.5871 100.549 22.0323 100.573 23.8974ZM129.932 31.968L127.361 23.5312C127.248 23.1504 127.125 22.7305 126.993 22.2715C126.869 21.8126 126.746 21.3536 126.623 20.8947C126.5 20.4357 126.387 20.011 126.284 19.6204C126.191 19.22 126.118 18.8978 126.066 18.6537H125.949C125.903 18.8978 125.839 19.22 125.757 19.6204C125.674 20.011 125.577 20.4406 125.466 20.9093C125.364 21.3683 125.253 21.8321 125.133 22.3008C125.022 22.7695 124.91 23.1943 124.798 23.5751L122.329 31.968H119.077L114.384 15.8414H117.387L119.709 24.2928C119.863 24.8592 120.013 25.4451 120.157 26.0505C120.302 26.6559 120.427 27.2272 120.531 27.7642C120.636 28.3013 120.715 28.7602 120.769 29.1411H120.886C120.932 28.8872 120.986 28.5747 121.05 28.2036C121.123 27.8228 121.201 27.4273 121.283 27.0172C121.366 26.5973 121.453 26.1921 121.546 25.8015C121.648 25.4109 121.741 25.0691 121.825 24.7762L124.433 15.8414H127.626L130.365 24.7616C130.498 25.1912 130.636 25.6746 130.779 26.2116C130.923 26.7389 131.052 27.2613 131.166 27.7789C131.28 28.2964 131.359 28.7407 131.403 29.1118H131.521C131.555 28.7798 131.623 28.3501 131.723 27.8228C131.824 27.2955 131.939 26.7243 132.067 26.1091C132.196 25.4841 132.334 24.8787 132.483 24.2928L134.613 15.8414H137.572L133.272 31.968H129.932ZM146.238 29.9027C146.658 29.9027 147.082 29.8685 147.511 29.8002C147.94 29.7221 148.309 29.6244 148.62 29.5072L148.65 31.7629C148.32 31.9094 147.877 32.0314 147.322 32.1291C146.776 32.2365 146.215 32.2902 145.639 32.2902C144.76 32.2902 143.963 32.1388 143.246 31.8361C142.529 31.5334 141.951 31.0159 141.511 30.2835C141.082 29.5512 140.859 28.5356 140.842 27.2369L140.722 18.1264H138.481L138.463 16.7642L140.793 15.6803L141.787 12.1943H143.604L143.652 15.8561H148.325L148.354 18.1264H143.681L143.8 27.193C143.812 28.1011 144.036 28.7798 144.471 29.2289C144.917 29.6781 145.506 29.9027 146.238 29.9027ZM154.566 9.20624L154.648 15.4752C154.654 15.9732 154.646 16.4615 154.623 16.94C154.6 17.4184 154.571 17.8188 154.536 18.141H154.712C155.046 17.5747 155.46 17.106 155.953 16.7349C156.456 16.3541 157.024 16.0709 157.656 15.8854C158.298 15.6901 158.975 15.5924 159.688 15.5924C160.948 15.5924 162.015 15.7975 162.89 16.2076C163.764 16.6177 164.432 17.2573 164.892 18.1264C165.353 18.9857 165.592 20.1037 165.61 21.4806L165.748 31.9973H162.833L162.7 21.8761C162.683 20.5871 162.388 19.6204 161.813 18.9759C161.238 18.3217 160.364 17.9946 159.192 17.9946C158.079 17.9946 157.193 18.2191 156.535 18.6683C155.877 19.1077 155.412 19.7571 155.14 20.6164C154.868 21.4757 154.74 22.5303 154.756 23.7802L154.864 31.9973H151.92L151.621 9.20624H154.566Z" fill="#44546A"/>
<path d="M7.31627 62.9985H5.48034L5.3838 55.6242C5.37228 54.744 5.38398 54.0462 5.41889 53.5306C5.30074 53.6556 5.15411 53.7936 4.979 53.9446C4.8091 54.0957 4.23204 54.5748 3.24782 55.382L2.31071 54.218L5.63552 51.5776H7.16677L7.31627 62.9985ZM12.4381 54.9992C12.4483 55.7752 12.5314 56.3533 12.6874 56.7335C12.8434 57.1136 13.0933 57.3037 13.437 57.3037C14.1245 57.3037 14.4582 56.5356 14.4381 54.9992C14.418 53.4629 14.0642 52.6947 13.3767 52.6947C13.033 52.6947 12.788 52.8848 12.642 53.265C12.4959 53.6452 12.428 54.2233 12.4381 54.9992ZM15.9535 54.9836C15.9692 56.1814 15.7649 57.0824 15.3405 57.6865C14.9212 58.2854 14.2923 58.5849 13.4538 58.5849C12.6621 58.5849 12.0435 58.275 11.5979 57.6553C11.1574 57.0303 10.9296 56.1398 10.9145 54.9836C10.8833 52.6036 11.6985 51.4136 13.3599 51.4136C14.1776 51.4136 14.8093 51.7235 15.2549 52.3432C15.7057 52.9577 15.9385 53.8379 15.9535 54.9836ZM19.9353 59.5613C19.9455 60.3373 20.0286 60.918 20.1847 61.3034C20.346 61.6888 20.5985 61.8815 20.9423 61.8815C21.6246 61.8815 21.9556 61.1081 21.9353 59.5613C21.9154 58.0354 21.5642 57.2725 20.8819 57.2725C20.5382 57.2725 20.2906 57.46 20.1393 57.8349C19.9932 58.2099 19.9252 58.7854 19.9353 59.5613ZM23.451 59.5613C23.4666 60.7592 23.2623 61.6575 22.8378 62.2564C22.4134 62.8553 21.7871 63.1548 20.9589 63.1548C20.1673 63.1548 19.5487 62.8475 19.1031 62.233C18.6575 61.6132 18.4271 60.7227 18.4119 59.5613C18.3807 57.1813 19.1985 55.9913 20.8652 55.9913C21.6673 55.9913 22.2937 56.2986 22.7444 56.9131C23.2004 57.5277 23.4359 58.4104 23.451 59.5613ZM21.0261 51.5776L14.8397 62.9985H13.3241L19.5105 51.5776H21.0261ZM34.589 52.7963C34.0004 52.7963 33.4731 52.9005 33.0071 53.1088C32.5462 53.3119 32.1569 53.6113 31.8392 54.0071C31.5214 54.3977 31.2802 54.869 31.1155 55.4211C30.9509 55.9731 30.8731 56.5954 30.8821 57.2881C30.8942 58.2099 31.0401 59.0067 31.3197 59.6785C31.6045 60.3503 32.0254 60.8685 32.5822 61.2331C33.1391 61.5976 33.8368 61.7799 34.6753 61.7799C35.1753 61.7799 35.6513 61.7356 36.1033 61.6471C36.5604 61.5534 37.0145 61.4336 37.4658 61.2878L37.4837 62.6626C37.0484 62.8293 36.5969 62.9517 36.1292 63.0298C35.6667 63.1131 35.123 63.1548 34.498 63.1548C33.3313 63.1548 32.3568 62.9126 31.5744 62.4283C30.7973 61.9439 30.2128 61.2643 29.8212 60.3894C29.4294 59.5093 29.2258 58.4729 29.2102 57.2803C29.1988 56.4158 29.3083 55.6268 29.5386 54.9133C29.7687 54.1946 30.1122 53.5749 30.5689 53.0541C31.0256 52.5281 31.588 52.1245 32.2562 51.8432C32.9295 51.5568 33.7063 51.4136 34.5865 51.4136C35.1594 51.4136 35.7175 51.4761 36.2608 51.6011C36.8093 51.7209 37.3141 51.8901 37.7753 52.1089L37.199 53.4447C36.8166 53.2728 36.4057 53.1218 35.9665 52.9916C35.5325 52.8614 35.0733 52.7963 34.589 52.7963ZM41.1728 50.8433L41.2165 54.1868C41.22 54.4524 41.2156 54.7128 41.2033 54.968C41.191 55.2232 41.1756 55.4367 41.157 55.6086H41.2508C41.4291 55.3065 41.6498 55.0565 41.9128 54.8586C42.181 54.6555 42.4837 54.5045 42.821 54.4055C43.1634 54.3014 43.5247 54.2493 43.9049 54.2493C44.5767 54.2493 45.1459 54.3587 45.6123 54.5774C46.0787 54.7961 46.4347 55.1372 46.6804 55.6007C46.9259 56.059 47.0535 56.6553 47.0632 57.3896L47.1366 62.9985H45.5819L45.5112 57.6006C45.5022 56.9131 45.3444 56.3975 45.0379 56.0538C44.7312 55.7049 44.2654 55.5304 43.6404 55.5304C43.0466 55.5304 42.5742 55.6502 42.2232 55.8898C41.8721 56.1241 41.624 56.4705 41.479 56.9288C41.334 57.387 41.2658 57.9495 41.2745 58.6161L41.3319 62.9985H39.7616L39.6025 50.8433H41.1728ZM52.9438 54.2415C54.0063 54.2415 54.8037 54.4784 55.3359 54.9524C55.8681 55.4211 56.1409 56.1632 56.1541 57.1787L56.2303 62.9985H55.1053L54.7843 61.7487H54.7218C54.4863 62.0611 54.2397 62.3215 53.982 62.5298C53.7243 62.7381 53.4243 62.8944 53.0819 62.9985C52.7447 63.1027 52.3313 63.1548 51.8418 63.1548C51.3209 63.1548 50.8562 63.061 50.4474 62.8736C50.0387 62.6861 49.7147 62.4048 49.4755 62.0299C49.2413 61.6497 49.1204 61.168 49.1128 60.5847C49.1013 59.7098 49.4286 59.0458 50.0945 58.5927C50.7605 58.1396 51.7755 57.8922 53.1395 57.8505L54.6231 57.7881L54.6167 57.3037C54.6079 56.6319 54.4507 56.158 54.145 55.882C53.8445 55.6059 53.426 55.4679 52.8896 55.4679C52.4469 55.4679 52.0232 55.533 51.6187 55.6632C51.2141 55.7882 50.8254 55.9393 50.4527 56.1163L49.9378 54.9758C50.3413 54.7675 50.8 54.593 51.3138 54.4524C51.8328 54.3118 52.3761 54.2415 52.9438 54.2415ZM54.6209 58.8192L53.4185 58.8739C52.4242 58.9104 51.7259 59.077 51.3235 59.3739C50.9263 59.6655 50.7311 60.0743 50.738 60.6003C50.744 61.0586 50.8864 61.3945 51.1653 61.608C51.4441 61.8216 51.8101 61.9283 52.2632 61.9283C52.9611 61.9283 53.5315 61.733 53.9743 61.3424C54.4222 60.9466 54.6411 60.3634 54.6311 59.5926L54.6209 58.8192ZM63.0218 54.2337C64.0166 54.2337 64.7829 54.4836 65.3207 54.9836C65.8637 55.4836 66.1425 56.2856 66.1569 57.3896L66.2303 62.9985H64.6756L64.605 57.6006C64.596 56.9131 64.4382 56.3975 64.1316 56.0538C63.825 55.7049 63.3591 55.5304 62.7341 55.5304C61.8435 55.5304 61.2219 55.7934 60.8695 56.3194C60.5222 56.8454 60.3551 57.6084 60.3682 58.6083L60.4256 62.9985H58.8553L58.7426 54.3899H59.9848L60.2272 55.6007H60.3132C60.4915 55.2987 60.72 55.0461 60.9986 54.843C61.2772 54.6399 61.5877 54.4889 61.9301 54.3899C62.2777 54.2857 62.6416 54.2337 63.0218 54.2337ZM71.3431 66.842C70.1921 66.842 69.3039 66.631 68.6786 66.2092C68.0585 65.7874 67.7435 65.1989 67.7336 64.4437C67.7266 63.9073 67.8899 63.4516 68.2235 63.0767C68.5572 62.7069 69.0279 62.4569 69.6356 62.3267C69.4051 62.2226 69.2051 62.0637 69.0356 61.8502C68.8713 61.6315 68.7874 61.3867 68.7838 61.1159C68.7797 60.7982 68.8646 60.5248 69.0387 60.2957C69.2179 60.0613 69.4858 59.8348 69.8423 59.616C69.3867 59.4285 69.0181 59.1187 68.7364 58.6864C68.4546 58.249 68.3099 57.7386 68.3023 57.1553C68.2942 56.5356 68.4175 56.007 68.6721 55.5695C68.932 55.132 69.3079 54.7987 69.7997 54.5696C70.2915 54.3404 70.8915 54.2259 71.5999 54.2259C71.7561 54.2259 71.9177 54.2337 72.0845 54.2493C72.2514 54.2597 72.4104 54.2779 72.5618 54.304C72.7132 54.33 72.8359 54.3561 72.93 54.3821H75.8988L75.911 55.3117L74.3828 55.5461C74.5364 55.744 74.6619 55.9783 74.7592 56.2491C74.8565 56.5199 74.9072 56.8168 74.9114 57.1397C74.9229 58.0146 74.6325 58.7072 74.0402 59.2176C73.4531 59.7228 72.6335 59.9754 71.5814 59.9754C71.3365 59.9702 71.0889 59.9493 70.8384 59.9129C70.6161 60.0431 70.4487 60.1863 70.3362 60.3425C70.2236 60.4936 70.1686 60.668 70.1712 60.8659C70.1731 61.0169 70.2242 61.1393 70.3244 61.2331C70.4298 61.3268 70.5792 61.3971 70.7725 61.444C70.9657 61.4857 71.2004 61.5065 71.4764 61.5065H72.9764C73.9139 61.5065 74.6353 61.7044 75.1404 62.1002C75.6456 62.496 75.9032 63.0741 75.9131 63.8344C75.9258 64.7979 75.5396 65.54 74.7548 66.0608C73.9699 66.5816 72.8327 66.842 71.3431 66.842ZM71.3828 65.6936C72.0547 65.6936 72.6137 65.6259 73.0598 65.4905C73.5112 65.3551 73.8498 65.1624 74.0757 64.9124C74.3016 64.6625 74.4123 64.3656 74.4078 64.0219C74.4037 63.7094 74.325 63.4699 74.1718 63.3032C74.0239 63.1418 73.8037 63.0324 73.5113 62.9751C73.2189 62.9178 72.8591 62.8892 72.432 62.8892H71.0101C70.6456 62.8892 70.3286 62.9465 70.0593 63.061C69.7899 63.1756 69.5812 63.3397 69.4329 63.5532C69.2847 63.7719 69.2127 64.0401 69.2169 64.3578C69.2225 64.7901 69.4118 65.1208 69.7846 65.3499C70.1625 65.5791 70.6953 65.6936 71.3828 65.6936ZM71.6377 58.9051C72.2158 58.9051 72.6461 58.7541 72.9286 58.4521C73.2111 58.1448 73.3486 57.7073 73.3411 57.1397C73.3332 56.5303 73.1813 56.0721 72.8856 55.7648C72.5899 55.4575 72.1556 55.3039 71.5827 55.3039C71.0254 55.3039 70.6004 55.4627 70.3077 55.7804C70.0201 56.0929 69.8803 56.5512 69.8882 57.1553C69.8955 57.7125 70.0496 58.1448 70.3505 58.4521C70.6513 58.7541 71.0804 58.9051 71.6377 58.9051ZM80.8968 54.2337C81.6468 54.2337 82.2922 54.3951 82.8329 54.718C83.3735 55.0357 83.7908 55.4862 84.0849 56.0694C84.379 56.6527 84.5313 57.3402 84.5416 58.1318L84.5533 59.0223H78.7095C78.7372 59.9441 78.9835 60.6524 79.4483 61.1471C79.913 61.6367 80.5595 61.8815 81.3876 61.8815C81.9345 61.8815 82.4208 61.8294 82.8465 61.7252C83.2722 61.6211 83.7129 61.4674 84.1686 61.2643L84.1858 62.5845C83.7561 62.7824 83.3231 62.9256 82.8868 63.0142C82.4557 63.1079 81.9381 63.1548 81.3339 63.1548C80.5006 63.1548 79.7667 62.9881 79.1321 62.6548C78.5027 62.3215 78.0093 61.8294 77.6518 61.1784C77.2943 60.5222 77.1092 59.715 77.0967 58.7567C77.0843 57.8089 77.2325 56.9991 77.5414 56.3272C77.8503 55.6502 78.2914 55.132 78.8648 54.7727C79.4383 54.4133 80.1156 54.2337 80.8968 54.2337ZM80.905 55.4523C80.2696 55.4523 79.7619 55.6606 79.3819 56.0773C79.0019 56.4887 78.7831 57.0798 78.7254 57.8505H82.9598C82.9484 57.3766 82.8674 56.96 82.7169 56.6007C82.5664 56.2413 82.3413 55.9601 82.0418 55.757C81.7475 55.5539 81.3685 55.4523 80.905 55.4523ZM90.1205 59.3817L90.1027 58.0224H94.0558L94.0736 59.3817H90.1205ZM107.238 62.9985H99.6288L99.6126 61.7643L102.58 58.7098C103.146 58.1318 103.613 57.6266 103.982 57.1944C104.357 56.7569 104.638 56.3351 104.825 55.9288C105.013 55.5174 105.103 55.0695 105.097 54.5852C105.089 53.9915 104.909 53.5384 104.556 53.2259C104.202 52.9135 103.737 52.7572 103.159 52.7572C102.638 52.7572 102.168 52.8536 101.748 53.0463C101.334 53.2338 100.906 53.5046 100.462 53.8587L99.6048 52.8119C99.9087 52.5515 100.239 52.3172 100.596 52.1089C100.952 51.8953 101.343 51.7261 101.769 51.6011C102.194 51.4761 102.667 51.4136 103.188 51.4136C103.902 51.4136 104.518 51.5386 105.037 51.7886C105.561 52.0385 105.966 52.3927 106.254 52.851C106.541 53.3093 106.689 53.8457 106.697 54.4602C106.705 55.0695 106.59 55.6346 106.352 56.1554C106.119 56.671 105.784 57.1839 105.348 57.6943C104.912 58.2047 104.396 58.7489 103.799 59.327L101.602 61.5299L101.603 61.6002H107.22L107.238 62.9985ZM116.351 57.2725C116.363 58.1995 116.303 59.0275 116.172 59.7566C116.041 60.4857 115.825 61.1029 115.525 61.608C115.229 62.1132 114.838 62.4986 114.352 62.7642C113.871 63.0246 113.287 63.1548 112.6 63.1548C111.735 63.1548 111.018 62.923 110.45 62.4595C109.881 61.996 109.453 61.3268 109.166 60.4519C108.878 59.5718 108.726 58.5119 108.71 57.2725C108.694 56.0538 108.805 55.007 109.044 54.1321C109.282 53.252 109.677 52.5776 110.228 52.1089C110.785 51.6349 111.524 51.398 112.446 51.398C113.321 51.398 114.042 51.6323 114.611 52.101C115.185 52.5645 115.613 53.2364 115.895 54.1165C116.183 54.9914 116.335 56.0434 116.351 57.2725ZM110.288 57.2725C110.301 58.288 110.385 59.1343 110.54 59.8113C110.695 60.4883 110.938 60.9961 111.271 61.3346C111.604 61.6679 112.041 61.8346 112.582 61.8346C113.124 61.8346 113.557 61.6679 113.88 61.3346C114.209 61.0013 114.442 60.4962 114.579 59.8191C114.716 59.1421 114.778 58.2932 114.765 57.2725C114.752 56.2726 114.668 55.4367 114.513 54.7649C114.358 54.0878 114.115 53.5801 113.782 53.2416C113.455 52.8978 113.015 52.726 112.463 52.726C111.911 52.726 111.473 52.8978 111.149 53.2416C110.831 53.5801 110.603 54.0878 110.466 54.7649C110.334 55.4367 110.275 56.2726 110.288 57.2725ZM120.172 51.4136C120.985 51.4136 121.604 51.7261 122.028 52.351C122.458 52.9708 122.681 53.8483 122.696 54.9836C122.711 56.1189 122.519 57.0043 122.121 57.6396C121.728 58.2698 121.11 58.5849 120.266 58.5849C119.485 58.5849 118.882 58.2698 118.457 57.6396C118.037 57.0043 117.82 56.1189 117.805 54.9836C117.79 53.8483 117.974 52.9708 118.357 52.351C118.744 51.7261 119.35 51.4136 120.172 51.4136ZM120.195 52.5151C119.814 52.5151 119.536 52.7208 119.359 53.1322C119.187 53.5436 119.107 54.1608 119.118 54.9836C119.128 55.8117 119.225 56.434 119.408 56.8506C119.595 57.2673 119.879 57.4756 120.26 57.4756C120.65 57.4756 120.937 57.2673 121.119 56.8506C121.306 56.434 121.394 55.8117 121.383 54.9836C121.373 54.166 121.271 53.5514 121.078 53.14C120.885 52.7234 120.59 52.5151 120.195 52.5151ZM127.628 51.5776L121.441 62.9985H120.121L126.307 51.5776H127.628ZM127.435 55.9835C128.237 55.9835 128.854 56.296 129.284 56.9209C129.714 57.5459 129.936 58.4234 129.951 59.5535C129.966 60.6836 129.774 61.5664 129.376 62.2017C128.983 62.8319 128.368 63.147 127.529 63.147C126.743 63.147 126.14 62.8319 125.72 62.2017C125.3 61.5664 125.083 60.6836 125.068 59.5535C125.053 58.4234 125.237 57.5459 125.62 56.9209C126.002 56.296 126.607 55.9835 127.435 55.9835ZM127.45 57.1006C127.07 57.1006 126.794 57.3063 126.622 57.7177C126.45 58.124 126.37 58.7385 126.381 59.5613C126.391 60.3842 126.488 61.0039 126.671 61.4206C126.853 61.8372 127.135 62.0455 127.515 62.0455C127.905 62.0455 128.194 61.8398 128.382 61.4284C128.569 61.0169 128.657 60.3946 128.646 59.5613C128.635 58.7385 128.531 58.124 128.333 57.7177C128.14 57.3063 127.846 57.1006 127.45 57.1006Z" fill="#44546A"/>
<line x1="1" y1="40.5" x2="167" y2="40.5" stroke="#297CF8"/>
</svg>
